<?xml version="1.0" encoding="UTF-8" standalone="no"?>
<svg
   viewBox="0 0 2897.4 896.6"
   style="enable-background:new 0 0 2897.4 896.6"
   xml:space="preserve"
   version="1.1"
   id="svg2"
   sodipodi:docname="logo-dark.svg"
   inkscape:version="1.3.1 (9b9bdc1480, 2023-11-25, custom)"
   xmlns:inkscape="http://www.inkscape.org/namespaces/inkscape"
   xmlns:sodipodi="http://sodipodi.sourceforge.net/DTD/sodipodi-0.dtd"
   xmlns="http://www.w3.org/2000/svg"
   xmlns:svg="http://www.w3.org/2000/svg"><defs
   id="defs2" /><sodipodi:namedview
   id="namedview2"
   pagecolor="#ffffff"
   bordercolor="#000000"
   borderopacity="0.25"
   inkscape:showpageshadow="2"
   inkscape:pageopacity="0.0"
   inkscape:pagecheckerboard="0"
   inkscape:deskcolor="#d1d1d1"
   inkscape:zoom="0.35411059"
   inkscape:cx="1448.7"
   inkscape:cy="449.01227"
   inkscape:window-width="1920"
   inkscape:window-height="1016"
   inkscape:window-x="0"
   inkscape:window-y="0"
   inkscape:window-maximized="1"
   inkscape:current-layer="svg2" />
  
  
<g
   id="g3"
   transform="translate(-1.9433266)"><path
     fill="#4ad1cb"
     d="m 298.85712,461.32212 c 27.7215,11.12711 39.75981,46.07416 26.92579,78.0309 l -64.799,161.28523 c -6.49402,16.17086 -19.81574,28.85088 -37.14168,35.40907 L 118,776.01248 141.55044,739.19166 a 631.43415,631.43415 0 0 0 93.73974,-255.20464 c 10.21588,-25.36004 37.66787,-33.07329 63.56694,-22.6649 m 80.04584,-13.02654 -4.40207,-39.52879 c 55.5585,-13.16771 98.41131,-29.51827 128.39161,-49.00031 29.9546,-19.48206 47.90942,-38.97695 53.74891,-58.45901 a 680.20345,680.20345 0 0 1 21.94617,-61.50066 341.38512,341.38512 0 0 1 30.71184,-58.85685 q 17.55694,-26.56643 81.21371,-49.74469 C 732.9039,115.7531 896.8201,121.72092 896.8201,121.72092 q -98.7578,7.59775 -148.1431,38.36091 c -32.9322,20.50878 -52.65806,44.05922 -59.29326,70.63849 -6.54535,26.57928 -12.44901,53.28689 -17.54411,80.12284 q -7.72609,40.26034 -46.07416,73.30796 -38.45075,33.02196 -119.61314,43.6742 c 58.4975,19.28954 102.06903,43.50734 130.58624,72.70476 28.54287,29.17175 45.68913,57.58628 51.56712,85.24361 q 8.77847,41.46674 20.86812,79.57098 12.02549,38.05288 59.22909,63.91345 47.1778,25.87339 143.7411,30.44231 c 0,0 -181.8325,6.95604 -224.91637,-12.56451 Q 622.4928,717.823 606.02673,677.87067 A 539.02916,539.02916 0 0 1 579.67847,595.64306 Q 569.8091,553.41911 523.72212,512.31172 477.66079,471.23 378.87729,448.35976 Z m -88.38794,-67.39147 a 51.483701,51.483701 0 1 0 0,-102.9674 51.483701,51.483701 0 0 0 0,102.9674"
     id="path2"
     style="stroke-width:12.834" /><text
     xml:space="preserve"
     style="font-size:425.422px;font-family:RaviPrakash;-inkscape-font-specification:'RaviPrakash, Normal';text-align:center;text-anchor:middle;fill:#000000;stroke-width:6.65766"
     x="1759.6149"
     y="606.8985"
     id="text2"><tspan
       sodipodi:role="line"
       id="tspan2"
       x="1759.6149"
       y="606.8985"
       style="stroke-width:6.65766">Doc<tspan
   style="font-weight:bold;stroke-width:6.65766"
   id="tspan3">Vault</tspan></tspan></text></g></svg>
