<?xml version="1.0" encoding="UTF-8" standalone="no"?>
<svg
   viewBox="0 0 198.4 238.9"
   style="enable-background:new 0 0 198.4 238.9"
   xml:space="preserve"
   version="1.1"
   id="svg1"
   sodipodi:docname="logo-dark-notext.svg"
   inkscape:version="1.3.1 (9b9bdc1480, 2023-11-25, custom)"
   xmlns:inkscape="http://www.inkscape.org/namespaces/inkscape"
   xmlns:sodipodi="http://sodipodi.sourceforge.net/DTD/sodipodi-0.dtd"
   xmlns="http://www.w3.org/2000/svg"
   xmlns:svg="http://www.w3.org/2000/svg"><defs
   id="defs1" /><sodipodi:namedview
   id="namedview1"
   pagecolor="#ffffff"
   bordercolor="#000000"
   borderopacity="0.25"
   inkscape:showpageshadow="2"
   inkscape:pageopacity="0.0"
   inkscape:pagecheckerboard="0"
   inkscape:deskcolor="#d1d1d1"
   showgrid="false"
   inkscape:zoom="3.4156552"
   inkscape:cx="102.46936"
   inkscape:cy="106.27536"
   inkscape:window-width="1920"
   inkscape:window-height="1016"
   inkscape:window-x="0"
   inkscape:window-y="0"
   inkscape:window-maximized="1"
   inkscape:current-layer="svg1" />
  
<path
   fill="#4ad1cb"
   d="m 50.420751,122.38786 c 6.25412,2.51033 8.970025,10.39458 6.074605,17.60419 l -14.619002,36.38682 c -1.465082,3.64823 -4.470529,6.50891 -8.379367,7.98847 l -23.8785686,9.01636 5.3130966,-8.30698 a 142.45494,142.45494 0 0 0 21.148202,-57.57554 c 2.304762,-5.72136 8.498058,-7.46151 14.341034,-5.11332 m 18.058777,-2.93886 -0.993131,-8.91791 c 12.534296,-2.9707 22.20212,-6.65948 28.965837,-11.05473 6.757926,-4.395257 10.808626,-8.793409 12.126046,-13.188667 a 153.45755,153.45755 0 0 1 4.95118,-13.874879 77.018318,77.018318 0 0 1 6.92875,-13.278421 q 3.96094,-5.993529 18.32225,-11.222669 c 9.56359,-3.486093 46.54396,-2.139721 46.54396,-2.139721 q -22.28029,1.714094 -33.42188,8.654428 c -7.42968,4.626891 -11.87994,9.939996 -13.37687,15.936422 -1.47667,5.996428 -2.80857,12.021809 -3.95805,18.076143 q -1.74305,9.082949 -10.39458,16.538674 -8.67469,7.44993 -26.985371,9.85313 c 13.197351,4.35182 23.027331,9.81549 29.460961,16.40259 6.43943,6.5813 10.30772,12.99177 11.63382,19.23141 q 1.98047,9.35512 4.70796,17.95165 2.71302,8.58493 13.3624,14.41921 10.64357,5.83718 32.42877,6.86795 c 0,0 -41.02239,1.56932 -50.74234,-2.83462 q -14.60453,-6.61315 -18.31936,-15.62661 a 121.60788,121.60788 0 0 1 -5.94431,-18.55099 q -2.22659,-9.52595 -12.62406,-18.8 -10.391685,-9.26826 -32.677774,-14.42791 z M 48.538729,104.24512 a 11.615,11.615 0 1 0 0,-23.229996 11.615,11.615 0 0 0 0,23.229996"
   id="path2"
   style="fill:#000000;stroke-width:2.89542" /></svg>
