<?xml version="1.0" encoding="UTF-8" standalone="no"?>
<svg
   width="264.567"
   height="318.552"
   viewBox="0 0 70 84.284"
   version="1.1"
   id="svg1"
   sodipodi:docname="logo-white-notext.svg"
   inkscape:version="1.3.1 (9b9bdc1480, 2023-11-25, custom)"
   xmlns:inkscape="http://www.inkscape.org/namespaces/inkscape"
   xmlns:sodipodi="http://sodipodi.sourceforge.net/DTD/sodipodi-0.dtd"
   xmlns="http://www.w3.org/2000/svg"
   xmlns:svg="http://www.w3.org/2000/svg">
  <defs
     id="defs1" />
  <sodipodi:namedview
     id="namedview1"
     pagecolor="#ffffff"
     bordercolor="#000000"
     borderopacity="0.25"
     inkscape:showpageshadow="2"
     inkscape:pageopacity="0.0"
     inkscape:pagecheckerboard="0"
     inkscape:deskcolor="#d1d1d1"
     inkscape:export-bgcolor="#76767600"
     inkscape:zoom="2.5615912"
     inkscape:cx="104.62247"
     inkscape:cy="173.72015"
     inkscape:window-width="1920"
     inkscape:window-height="1016"
     inkscape:window-x="0"
     inkscape:window-y="0"
     inkscape:window-maximized="1"
     inkscape:current-layer="svg1" />
  <path
     fill="#4ad1cb"
     d="m 18.341674,43.145292 c 2.135809,0.857291 3.063304,3.549795 2.074504,6.011909 l -4.992455,12.426258 c -0.500333,1.245887 -1.526708,2.222824 -2.861589,2.728104 L 4.4074945,67.390686 6.2219437,64.553817 A 48.648993,48.648993 0 0 0 13.444144,44.891515 c 0.787085,-1.95387 2.90213,-2.54814 4.89753,-1.746223 m 6.167151,-1.003632 -0.339159,-3.045505 c 4.280518,-1.01451 7.582123,-2.274243 9.891962,-3.775241 2.307859,-1.501 3.691193,-3.002988 4.141097,-4.503988 a 52.406435,52.406435 0 0 1 1.690848,-4.738333 26.302097,26.302097 0 0 1 2.366201,-4.53464 q 1.352679,-2.046817 6.25713,-3.832591 c 3.26601,-1.190516 15.894972,-0.730724 15.894972,-0.730724 q -7.60882,0.58537 -11.413728,2.955525 c -2.537263,1.580103 -4.057047,3.394553 -4.568259,5.442359 -0.504289,2.047807 -0.959137,4.105501 -1.35169,6.173083 q -0.595257,3.101868 -3.549794,5.648029 -2.962447,2.544185 -9.215622,3.36489 c 4.506953,1.486167 7.863932,3.352033 10.061047,5.601555 2.199093,2.247544 3.520131,4.436749 3.973001,6.567614 q 0.67634,3.194815 1.607791,6.130565 0.926506,2.931795 4.563315,4.924229 3.63483,1.99342 11.074568,2.345432 c 0,0 -14.009329,0.535931 -17.328732,-0.968035 q -4.987511,-2.258421 -6.256144,-5.336557 a 41.52963,41.52963 0 0 1 -2.030008,-6.335246 q -0.760388,-3.253154 -4.31117,-6.420283 -3.548806,-3.165151 -11.159604,-4.927194 z m -6.80987,-5.192192 a 3.9665741,3.9665741 0 1 0 0,-7.933148 3.9665741,3.9665741 0 0 0 0,7.933148"
     id="path2"
     style="stroke-width:0.988797" />
</svg>
