<?xml version="1.0" encoding="UTF-8" standalone="no"?>
<svg
   width="264.567"
   height="318.552"
   viewBox="0 0 70 84.284"
   version="1.1"
   id="svg1"
   sodipodi:docname="logo-notext.svg"
   inkscape:version="1.3.1 (9b9bdc1480, 2023-11-25, custom)"
   xmlns:inkscape="http://www.inkscape.org/namespaces/inkscape"
   xmlns:sodipodi="http://sodipodi.sourceforge.net/DTD/sodipodi-0.dtd"
   xmlns="http://www.w3.org/2000/svg"
   xmlns:svg="http://www.w3.org/2000/svg">
  <defs
     id="defs1" />
  <sodipodi:namedview
     id="namedview1"
     pagecolor="#ffffff"
     bordercolor="#000000"
     borderopacity="0.25"
     inkscape:showpageshadow="2"
     inkscape:pageopacity="0.0"
     inkscape:pagecheckerboard="0"
     inkscape:deskcolor="#d1d1d1"
     inkscape:zoom="1.8113185"
     inkscape:cx="-6.6250083"
     inkscape:cy="124.77099"
     inkscape:window-width="1920"
     inkscape:window-height="1016"
     inkscape:window-x="0"
     inkscape:window-y="0"
     inkscape:window-maximized="1"
     inkscape:current-layer="svg1" />
  <path
     fill="#4ad1cb"
     d="m 17.602211,43.189829 c 2.23062,0.895347 3.199284,3.707369 2.166593,6.278778 l -5.21407,12.97786 c -0.522544,1.301192 -1.594479,2.321493 -2.988616,2.849201 L 3.0494944,68.511474 4.9444875,65.54868 A 50.80852,50.80852 0 0 0 12.48728,45.013567 c 0.822025,-2.040602 3.030955,-2.66125 5.114931,-1.823738 m 6.44091,-1.048184 -0.354213,-3.180693 c 4.470529,-1.059543 7.918693,-2.375197 10.331067,-3.942825 2.410304,-1.567628 3.855043,-3.13629 4.324919,-4.70392 a 54.732753,54.732753 0 0 1 1.765904,-4.948667 27.469646,27.469646 0 0 1 2.471239,-4.735932 q 1.412724,-2.137675 6.534884,-4.00272 c 3.410984,-1.243363 16.600543,-0.763161 16.600543,-0.763161 q -7.94657,0.611355 -11.920373,3.086721 c -2.6499,1.650245 -4.237145,3.545237 -4.771047,5.683946 -0.526674,2.138708 -1.001715,4.287743 -1.411694,6.447106 q -0.62168,3.239558 -3.70737,5.898745 -3.09395,2.657121 -9.624703,3.514256 c 4.707018,1.552137 8.213012,3.50083 10.507659,5.850207 2.29671,2.347313 3.676389,4.633696 4.149361,6.859152 q 0.706362,3.336633 1.67916,6.4027 0.967634,3.061935 4.765883,5.142812 3.796177,2.081911 11.566166,2.449549 c 0,0 -14.6312,0.559722 -18.097956,-1.011005 q -5.208903,-2.358674 -6.533853,-5.573447 a 43.373126,43.373126 0 0 1 -2.120118,-6.61647 Q 39.404436,50.600439 35.696035,47.29272 31.9897,43.98707 24.041057,42.14681 Z m -7.112159,-5.422672 a 4.1426505,4.1426505 0 1 0 0,-8.285301 4.1426505,4.1426505 0 0 0 0,8.285301"
     id="path2"
     style="stroke-width:1.03269" />
</svg>
